<?xml version="1.0" encoding="UTF-8"?>
<svg version="1.1" xmlns="http://www.w3.org/2000/svg" width="96" height="96">
<path d="M0 0 C2.625 2.375 2.625 2.375 5 5 C8.10007201 6.20049407 8.10007201 6.20049407 11 7 C11.66 7.66 12.32 8.32 13 9 C14.7015625 9.2165625 14.7015625 9.2165625 16.4375 9.4375 C20 10 20 10 21.9375 11.125 C23.58420065 14.03094231 23.18462917 16.73821805 23 20 C23.804375 20.2475 24.60875 20.495 25.4375 20.75 C26.283125 21.1625 27.12875 21.575 28 22 C28.33333333 23.33333333 28.66666667 24.66666667 29 26 C31.47130918 27.15521502 31.47130918 27.15521502 34 28 C35.59107454 31.18214909 35.53657121 34.54364517 35 38 C34.34 38.61875 33.68 39.2375 33 39.875 C30.76073552 41.7963621 30.76073552 41.7963621 30.875 44.3203125 C30.91625 45.20460937 30.9575 46.08890625 31 47 C31.16666667 51.70833333 31.16666667 51.70833333 29.5 54.625 C24.84593696 57.18473467 19.97488085 56.39296664 15 55 C14.67 55.33 14.34 55.66 14 56 C12.845 56.144375 11.69 56.28875 10.5 56.4375 C9.345 56.623125 8.19 56.80875 7 57 C5.26690227 60.46619545 5.38408135 64.21930785 6 68 C8.37500791 70.87640616 8.37500791 70.87640616 11 73 C11 73.99 11 74.98 11 76 C3.08 76 -4.84 76 -13 76 C-12 72 -12 72 -9.9375 70.1875 C-7.67062788 68.04319227 -7.67062788 68.04319227 -7.5625 64.5 C-8.11011061 60.10432846 -8.11011061 60.10432846 -11 57 C-14.0842309 56.58297878 -14.0842309 56.58297878 -17 57 C-17.33 57.33 -17.66 57.66 -18 58 C-25.28391608 58.46993007 -25.28391608 58.46993007 -28 56.6875 C-29 55 -29 55 -29 52 C-29.763125 52.061875 -30.52625 52.12375 -31.3125 52.1875 C-34 52 -34 52 -35.8125 51 C-37.69728516 47.825625 -37.59160429 44.59513378 -37 41 C-35.5 39.375 -35.5 39.375 -34 38 C-33.5 35 -33.5 35 -34 32 C-34.495 31.54625 -34.99 31.0925 -35.5 30.625 C-37.7167465 28.22352463 -37.41532988 26.04473601 -37.29296875 22.875 C-37 21 -37 21 -35.6875 19 C-34 18 -34 18 -31 18 C-31.061875 17.236875 -31.12375 16.47375 -31.1875 15.6875 C-31 13 -31 13 -29.9375 11.1875 C-27.00731249 9.39157863 -24.3527047 9.81022426 -21 10 C-20.835 9.236875 -20.67 8.47375 -20.5 7.6875 C-18.53992692 4.17570239 -16.69601701 3.81018836 -12.97265625 2.67578125 C-3.26623419 -0.64938908 -3.26623419 -0.64938908 0 0 Z " fill="#32C380" transform="translate(49,10)"/>
<path d="M0 0 C0.01417969 0.59167969 0.02835938 1.18335937 0.04296875 1.79296875 C0.31567856 6.31110693 0.45316435 8.38647707 3.5625 11.875 C4.366875 12.57625 5.17125 13.2775 6 14 C6 14.99 6 15.98 6 17 C-1.92 17 -9.84 17 -18 17 C-17 13 -17 13 -15 11.1875 C-12.33235656 8.26976499 -12.2971369 5.86277968 -12 2 C-10.01432292 2.06510417 -8.02864583 2.13020833 -6.04296875 2.1953125 C-3.58510223 1.96033482 -2.30111137 0 0 0 Z " fill="#BF6315" transform="translate(54,69)"/>
<path d="M0 0 C0 3.96 0 7.92 0 12 C-4 11 -4 11 -6 8 C-6.36781336 5.05749309 -6.44752699 3.61801347 -4.6875 1.1875 C-3 0 -3 0 0 0 Z " fill="#22A567" transform="translate(48,50)"/>
<path d="M0 0 C0 3.96 0 7.92 0 12 C-4 11 -4 11 -6 8 C-6.36781336 5.05749309 -6.44752699 3.61801347 -4.6875 1.1875 C-3 0 -3 0 0 0 Z " fill="#22A567" transform="translate(34,42)"/>
<path d="M0 0 C0.66 0 1.32 0 2 0 C2 2.64 2 5.28 2 8 C0.68 7.34 -0.64 6.68 -2 6 C-1.125 1.125 -1.125 1.125 0 0 Z " fill="#22A567" transform="translate(68,46)"/>
<path d="M0 0 C0.66 0 1.32 0 2 0 C2 2.64 2 5.28 2 8 C0.68 7.34 -0.64 6.68 -2 6 C-1.125 1.125 -1.125 1.125 0 0 Z " fill="#22A567" transform="translate(56,36)"/>
<path d="M0 0 C0.66 0 1.32 0 2 0 C2 2.64 2 5.28 2 8 C0.68 7.34 -0.64 6.68 -2 6 C-1.125 1.125 -1.125 1.125 0 0 Z " fill="#22A567" transform="translate(28,28)"/>
<path d="M0 0 C0.66 0 1.32 0 2 0 C2 2.64 2 5.28 2 8 C0.68 7.34 -0.64 6.68 -2 6 C-1.125 1.125 -1.125 1.125 0 0 Z " fill="#22A567" transform="translate(46,22)"/>
</svg>
